<?xml version="1.0" standalone="no"?>
<!DOCTYPE svg PUBLIC "-//W3C//DTD SVG 20010904//EN"
 "http://www.w3.org/TR/2001/REC-SVG-20010904/DTD/svg10.dtd">
<svg version="1.0" xmlns="http://www.w3.org/2000/svg"
 width="288.000000pt" height="288.000000pt" viewBox="0 0 288.000000 288.000000"
 preserveAspectRatio="xMidYMid meet">
<metadata>
Created by potrace 1.14, written by Peter Selinger 2001-2017
</metadata>
<g transform="translate(0.000000,288.000000) scale(0.100000,-0.100000)"
fill="#000000" stroke="none">
<path d="M720 2463 c-19 -2 -38 -10 -42 -16 -12 -19 -10 -1345 2 -1368 10 -18
24 -19 248 -19 131 0 244 5 252 10 12 7 16 40 20 157 l5 148 120 0 120 0 0
-110 0 -110 -48 -9 c-39 -7 -50 -14 -58 -34 -20 -52 -19 -52 246 -52 l245 0 0
35 c0 38 -10 46 -60 49 -47 2 -51 14 -48 127 l3 104 263 5 264 5 24 28 25 29
-3 435 -3 435 -28 24 -28 24 -452 1 c-249 1 -481 4 -517 8 -63 6 -64 7 -71 39
-4 19 -12 39 -18 45 -12 12 -389 20 -461 10z m245 -737 c25 -18 25 -74 0 -92
-25 -19 -55 -18 -77 3 -54 48 18 133 77 89z m660 -166 c37 -41 -14 -107 -64
-81 -47 26 -30 101 24 101 12 0 30 -9 40 -20z m398 -26 c9 -10 -4 -34 -18 -34
-17 0 -28 17 -20 30 7 11 28 13 38 4z m91 -2 c9 -14 -12 -35 -28 -29 -23 9
-20 37 3 37 11 0 22 -4 25 -8z m86 -13 c0 -25 -33 -22 -38 4 -2 12 3 17 17 17
15 0 21 -6 21 -21z m-1310 -354 c19 -22 3 -35 -45 -35 -24 0 -47 5 -50 10 -11
18 16 40 50 40 18 0 38 -7 45 -15z m158 -12 c3 -21 -1 -23 -43 -23 -33 0 -47
5 -52 16 -8 22 15 35 57 32 28 -2 36 -8 38 -25z"/>
<path d="M576 854 c-3 -9 -6 -54 -6 -101 0 -70 -4 -89 -20 -110 -11 -14 -20
-30 -20 -34 0 -18 29 -8 49 17 18 23 21 41 21 130 0 96 -10 135 -24 98z"/>
<path d="M787 864 c-4 -4 -7 -70 -7 -146 0 -107 3 -139 13 -136 8 3 13 42 15
138 2 123 -3 161 -21 144z"/>
<path d="M1391 851 c-17 -30 -14 -246 2 -260 8 -6 17 -8 20 -4 11 10 8 271 -2
278 -6 3 -15 -3 -20 -14z"/>
<path d="M1495 860 c-10 -16 2 -27 39 -34 110 -21 99 -192 -14 -207 -14 -2
-25 -11 -25 -19 0 -11 9 -14 35 -12 101 7 153 135 90 220 -29 39 -112 74 -125
52z"/>
<path d="M1925 860 c-12 -20 7 -30 58 -30 61 0 91 14 67 30 -20 13 -117 13
-125 0z"/>
<path d="M2216 861 c-7 -11 20 -77 40 -98 6 -6 17 -25 24 -42 12 -29 33 -40
44 -23 5 8 -71 143 -91 163 -7 7 -13 7 -17 0z"/>
<path d="M2492 845 c-12 -14 -22 -28 -22 -31 0 -3 -25 -50 -55 -104 -53 -94
-65 -130 -46 -130 8 0 104 156 146 239 22 43 7 60 -23 26z"/>
<path d="M1006 839 c-25 -20 -33 -50 -20 -84 9 -24 58 -45 103 -45 86 0 120
-47 64 -88 -25 -18 -26 -21 -10 -27 24 -10 63 18 71 50 14 55 -36 95 -119 95
-53 0 -91 26 -81 57 4 11 16 23 26 26 22 6 28 37 6 37 -7 0 -25 -9 -40 -21z"/>
<path d="M1137 853 c-4 -3 -2 -12 4 -20 15 -17 59 -17 59 1 0 21 -47 35 -63
19z"/>
<path d="M1814 847 c-2 -7 -3 -69 -2 -137 2 -88 7 -125 16 -128 9 -3 12 29 12
137 0 90 -4 141 -10 141 -6 0 -13 -6 -16 -13z"/>
<path d="M1920 725 c0 -11 12 -15 45 -15 33 0 45 4 45 15 0 11 -12 15 -45 15
-33 0 -45 -4 -45 -15z"/>
<path d="M384 697 c-8 -22 24 -85 48 -93 28 -8 34 3 14 25 -9 10 -21 31 -25
47 -8 32 -28 43 -37 21z"/>
<path d="M980 617 c0 -17 65 -36 77 -23 11 10 -10 25 -45 32 -25 5 -32 3 -32
-9z"/>
<path d="M1927 613 c-4 -3 -7 -12 -7 -20 0 -9 17 -13 63 -13 69 0 83 6 66 27
-12 13 -110 19 -122 6z"/>
</g>
</svg>
